<svg width="25" height="25" viewBox="0 0 25 25" fill="none" xmlns="http://www.w3.org/2000/svg">
<path d="M23 12.5C23 18.296 18.3012 23 12.5 23C6.69875 23 2 18.296 2 12.5C2 6.69875 6.69875 2 12.5 2C18.3012 2 23 6.69875 23 12.5Z" fill="#283544"/>
<path d="M17.4216 9.84304C17.3643 9.87646 16.0003 10.5819 16.0003 12.1459C16.0646 13.9296 17.7216 14.5551 17.75 14.5551C17.7216 14.5885 17.4998 15.4072 16.843 16.2654C16.3217 17.0047 15.7432 17.75 14.8646 17.75C14.0289 17.75 13.7289 17.2573 12.7646 17.2573C11.729 17.2573 11.436 17.75 10.6431 17.75C9.76458 17.75 9.14315 16.9647 8.59345 16.2324C7.87932 15.2739 7.27233 13.7698 7.2509 12.3256C7.23646 11.5603 7.39392 10.808 7.79361 10.169C8.35774 9.27699 9.36489 8.67143 10.4647 8.65146C11.3074 8.62498 12.0574 9.1906 12.5717 9.1906C13.0646 9.1906 13.986 8.65146 15.0286 8.65146C15.4786 8.6519 16.6786 8.77822 17.4216 9.84304ZM12.5005 8.49866C12.3505 7.79978 12.7646 7.10089 13.1503 6.65508C13.6432 6.11594 14.4216 5.75 15.0929 5.75C15.1357 6.44889 14.8641 7.13432 14.3787 7.63352C13.9432 8.17266 13.1932 8.57853 12.5005 8.49866Z" fill="white"/>
</svg>
