<svg width="24" height="25" viewBox="0 0 24 25" fill="none" xmlns="http://www.w3.org/2000/svg">
<path d="M4.687 6.71298L6.8 19.476C6.89665 20.0603 7.19759 20.5913 7.6492 20.9744C8.10081 21.3575 8.67377 21.5679 9.266 21.568H12.614M19.312 6.71298L17.2 19.476C17.1033 20.0603 16.8024 20.5913 16.3508 20.9744C15.8992 21.3575 15.3262 21.5679 14.734 21.568H11.386M10.022 11.616V16.665M13.978 11.616V16.665M2.75 6.71298H21.25M14.777 6.71298V4.93298C14.777 4.53516 14.619 4.15363 14.3377 3.87232C14.0564 3.59102 13.6748 3.43298 13.277 3.43298H10.723C10.3252 3.43298 9.94364 3.59102 9.66234 3.87232C9.38104 4.15363 9.223 4.53516 9.223 4.93298V6.71298H14.777Z" stroke="#FF0000" stroke-width="1.5" stroke-linecap="round" stroke-linejoin="round"/>
</svg>
