<svg width="35" height="38" viewBox="0 0 35 38" fill="none" xmlns="http://www.w3.org/2000/svg">
<path fill-rule="evenodd" clip-rule="evenodd" d="M9.57828 8.24111C10.2779 7.72862 11.1005 7.45508 11.9419 7.45508C12.4821 7.45508 12.9201 7.93519 12.9201 8.52743C12.9201 9.11967 12.4821 9.59978 11.9419 9.59978C11.4874 9.59978 11.0431 9.74753 10.6652 10.0244C10.2873 10.3012 9.99271 10.6946 9.81878 11.155C9.64484 11.6153 9.59933 12.1219 9.688 12.6106C9.77668 13.0993 9.99554 13.5482 10.3169 13.9005C10.6383 14.2528 11.0478 14.4928 11.4936 14.59C11.9394 14.6872 12.4014 14.6373 12.8213 14.4466C13.2412 14.2559 13.6002 13.933 13.8527 13.5187C14.1052 13.1044 14.24 12.6174 14.24 12.1191C14.24 11.5268 14.6779 11.0467 15.2181 11.0467C15.7584 11.0467 16.1963 11.5268 16.1963 12.1191C16.1963 13.0415 15.9468 13.9433 15.4793 14.7103C15.0118 15.4773 14.3474 16.0751 13.57 16.4281C12.7926 16.7811 11.9372 16.8734 11.1119 16.6935C10.2866 16.5135 9.52858 16.0693 8.93359 15.417C8.3386 14.7648 7.93341 13.9337 7.76925 13.029C7.60509 12.1243 7.68934 11.1865 8.01135 10.3342C8.33335 9.48201 8.87865 8.75359 9.57828 8.24111Z" fill="#C8C8C8"/>
<path fill-rule="evenodd" clip-rule="evenodd" d="M33.1961 13.6738C33.7286 13.6738 34.1602 14.1569 34.1602 14.7527V23.7869C34.1602 28.4084 33.3448 31.9241 31.2709 34.258C29.1957 36.5934 26.0681 37.5121 21.9586 37.5121H12.3266C8.21841 37.5121 5.09091 36.5938 3.01538 34.2587C0.941114 31.925 0.125 28.4092 0.125 23.7869V20.1545C0.125 19.5586 0.556641 19.0756 1.0891 19.0756C1.62155 19.0756 2.05319 19.5586 2.05319 20.1545V23.7869C2.05319 28.1986 2.84391 31.006 4.38244 32.7369C5.9197 34.4665 8.41096 35.3543 12.3266 35.3543H21.9586C25.8755 35.3543 28.3667 34.4661 29.9036 32.7365C31.4419 31.0054 32.232 28.198 32.232 23.7869V14.7527C32.232 14.1569 32.6637 13.6738 33.1961 13.6738Z" fill="#C8C8C8"/>
<path fill-rule="evenodd" clip-rule="evenodd" d="M3.0555 3.38657C5.15864 1.0991 8.32777 0.199219 12.4936 0.199219H19.0066C19.5436 0.199219 19.9789 0.672676 19.9789 1.25671C19.9789 1.84075 19.5436 2.31421 19.0066 2.31421H12.4936C8.51963 2.31421 5.99058 3.18529 4.4305 4.8821C2.87043 6.57891 2.06955 9.32964 2.06955 13.652C2.06955 14.236 1.63425 14.7095 1.09728 14.7095C0.560303 14.7095 0.125 14.236 0.125 13.652C0.125 9.12096 0.95236 5.67405 3.0555 3.38657Z" fill="#C8C8C8"/>
<path fill-rule="evenodd" clip-rule="evenodd" d="M21.8691 6.41731C21.8691 5.84489 22.3222 5.38086 22.8811 5.38086H32.2022C32.7611 5.38086 33.2142 5.84489 33.2142 6.41731C33.2142 6.98972 32.7611 7.45375 32.2022 7.45375H22.8811C22.3222 7.45375 21.8691 6.98972 21.8691 6.41731Z" fill="#C8C8C8"/>
<path fill-rule="evenodd" clip-rule="evenodd" d="M27.5431 0.199219C28.0652 0.199219 28.4885 0.695924 28.4885 1.30864V11.5272C28.4885 12.1399 28.0652 12.6366 27.5431 12.6366C27.0209 12.6366 26.5977 12.1399 26.5977 11.5272V1.30864C26.5977 0.695924 27.0209 0.199219 27.5431 0.199219Z" fill="#C8C8C8"/>
<path fill-rule="evenodd" clip-rule="evenodd" d="M26.6436 20.5908L19.9526 26.9405L19.9348 26.957C19.1213 27.6923 18.1007 28.0942 17.0473 28.0942C15.9939 28.0942 14.9732 27.6923 14.1598 26.957C14.151 26.9491 14.1424 26.941 14.1339 26.9327L13.6173 26.4314C13.1848 26.0488 12.6536 25.8253 12.0987 25.7927C11.5405 25.76 10.9872 25.9224 10.5183 26.2564L2.58035 32.1463C2.13727 32.4751 1.53549 32.347 1.23625 31.8602C0.936996 31.3734 1.05359 30.7123 1.49667 30.3835L9.45446 24.4789C10.2688 23.8954 11.231 23.6117 12.2019 23.6686C13.1727 23.7255 14.1019 24.1201 14.8551 24.7955C14.8649 24.8043 14.8745 24.8132 14.884 24.8224L15.4021 25.3253C15.867 25.7403 16.4479 25.9671 17.0473 25.9671C17.6483 25.9671 18.2308 25.7391 18.6964 25.3218L25.3875 18.9721L25.4052 18.9556C26.2187 18.2203 27.2394 17.8184 28.2928 17.8184C29.3461 17.8184 30.3668 18.2203 31.1803 18.9556L31.1981 18.9721L33.8249 21.4651C34.2295 21.8491 34.2741 22.5207 33.9246 22.9652C33.5751 23.4097 32.9637 23.4588 32.5591 23.0748L29.9418 20.5908C29.4763 20.1735 28.8938 19.9455 28.2928 19.9455C27.6917 19.9455 27.1092 20.1735 26.6436 20.5908Z" fill="#C8C8C8"/>
</svg>
